# xmcd CD database file generated by Grip 3.3.1
# 
# Track frame offsets:
#       150
#       22222
#       39455
#       58860
#       81662
#       99115
#       118900
#       137772
#       160797
#       179134
#       199547
#       218635
# 
# Disc length: 3063 seconds
# 
# Revision: 2
# Processed by: cddbd v1.5.2PL0 Copyright (c) Steve Scherf et al.
# Submitted via: Grip 3.3.1
# 
DISCID=ae0bf50c
DTITLE=Shahin and Sepehr - Aria
DYEAR=1996
DGENRE=New Age
TTITLE0=Through Your Eyes
TTITLE1=Cante Kian
TTITLE2=Leave It All Behind
TTITLE3=Road To Shiraz
TTITLE4=More Of You
TTITLE5=Jakarta
TTITLE6=Clouds Over Rio
TTITLE7=Reunion
TTITLE8=La Fortuna
TTITLE9=Return To Jakarta
TTITLE10=Beyond Zagros
TTITLE11=Three Faces - Common Ground
EXTD=YEAR: 1996
EXTT0=
EXTT1=
EXTT2=
EXTT3=
EXTT4=
EXTT5=
EXTT6=
EXTT7=
EXTT8=
EXTT9=
EXTT10=
EXTT11=
PLAYORDER=
